<?xml version="1.0" encoding="UTF-8" standalone="no"?>
<!-- Created with Inkscape (http://www.inkscape.org/) -->

<svg
   width="527.56372mm"
   height="340.64532mm"
   viewBox="0 0 527.56372 340.64532"
   version="1.1"
   id="svg682"
   inkscape:version="1.2.2 (b0a8486541, 2022-12-01)"
   sodipodi:docname="chess-board.svg"
   xmlns:inkscape="http://www.inkscape.org/namespaces/inkscape"
   xmlns:sodipodi="http://sodipodi.sourceforge.net/DTD/sodipodi-0.dtd"
   xmlns="http://www.w3.org/2000/svg"
   xmlns:svg="http://www.w3.org/2000/svg">
  <sodipodi:namedview
     id="namedview684"
     pagecolor="#ffffff"
     bordercolor="#000000"
     borderopacity="0.25"
     inkscape:showpageshadow="2"
     inkscape:pageopacity="0.0"
     inkscape:pagecheckerboard="0"
     inkscape:deskcolor="#d1d1d1"
     inkscape:document-units="mm"
     showgrid="false"
     inkscape:zoom="0.70710678"
     inkscape:cx="450.42702"
     inkscape:cy="520.43059"
     inkscape:window-width="1854"
     inkscape:window-height="1011"
     inkscape:window-x="0"
     inkscape:window-y="0"
     inkscape:window-maximized="1"
     inkscape:current-layer="layer1" />
  <defs
     id="defs679" />
  <g
     inkscape:label="Layer 1"
     inkscape:groupmode="layer"
     id="layer1"
     transform="translate(275.45754,99.174012)">
    <path
       id="rect506-8-4-6-7"
       style="vector-effect:non-scaling-stroke;fill:none;fill-opacity:1;stroke:#fe0000;stroke-width:0.264583;stroke-dasharray:none;stroke-opacity:1;-inkscape-stroke:hairline;stop-color:#000000"
       d="m -185.17052,62.549697 a 3.1840598,4.3108218 0 0 0 -3.0011,2.87932 h -1.9986 v 20.12067 h 10 v -20.12066 h -1.9966 a 3.1840598,4.3108218 0 0 0 -3.0037,-2.87933 z" />
    <path
       id="rect506-8-4-6-44"
       style="vector-effect:non-scaling-stroke;fill:none;fill-opacity:1;stroke:#fe0000;stroke-width:0.264583;stroke-dasharray:none;stroke-opacity:1;-inkscape-stroke:hairline;stop-color:#000000"
       d="m -209.30398,62.549697 a 3.1840598,4.3108218 0 0 0 -3.0011,2.87932 h -1.9986 v 20.12067 h 10 v -20.12066 h -1.9966 a 3.1840598,4.3108218 0 0 0 -3.0037,-2.87933 z" />
    <path
       id="rect506-8-4-6"
       style="vector-effect:non-scaling-stroke;fill:none;fill-opacity:1;stroke:#fe0000;stroke-width:0.264583;stroke-dasharray:none;stroke-opacity:1;-inkscape-stroke:hairline;stop-color:#000000"
       d="m -182.28937,-14.487068 a 3.1840598,4.3108218 0 0 0 -3.0011,2.879324 h -1.9986 V 8.5129329 h 10 V -11.607734 h -1.9966 a 3.1840598,4.3108218 0 0 0 -3.0037,-2.879334 z" />
    <path
       id="path1865-3-3-1"
       style="vector-effect:non-scaling-stroke;fill:none;fill-opacity:1;stroke:#fe0000;stroke-width:0.264583;stroke-dasharray:none;stroke-opacity:1;-inkscape-stroke:hairline;stop-color:#000000"
       d="m -161.73674,-64.023851 c -0.84061,1.405175 -1.70938,2.795869 -2.63447,4.156336 -0.92303,-0.816182 -1.78221,-1.687484 -2.64945,-2.552299 -0.93948,0.984385 -1.91887,1.93382 -2.9254,2.861324 1.38933,2.191847 2.83327,4.354157 4.24883,6.531901 -1.98643,9.668605 -4.00166,19.33239 -6.01617,28.996163 l 8.74159,0.0031 v -6.041491 h 2.99982 v 6.042525 l 8.2584,0.0026 c -2.00204,-9.511822 -3.84829,-19.727901 -5.82445,-29.24421 1.46518,-2.328501 2.90985,-3.996696 4.4235,-6.299357 -1.1681,-0.942834 -2.15428,-2.038975 -3.129,-3.143477 -0.87295,1.01601 -1.77591,2.007785 -2.71766,2.971394 -0.98066,-1.399222 -1.87777,-2.84031 -2.77554,-4.284493 z m -0.91416,18.775599 h 1.87534 v 2.045353 h 1.8743 v 2.045353 h -1.8743 v 2.04587 h -1.87534 v -2.04587 h -1.87534 v -2.045353 h 1.87534 z" />
    <path
       id="rect506-8-4-6-4"
       style="vector-effect:non-scaling-stroke;fill:none;fill-opacity:1;stroke:#fe0000;stroke-width:0.264583;stroke-dasharray:none;stroke-opacity:1;-inkscape-stroke:hairline;stop-color:#000000"
       d="m -136.30013,-14.487064 a 3.1840598,4.3108218 0 0 0 -3.0011,2.879324 h -1.9986 V 8.5129329 h 10 V -11.607732 h -1.9966 a 3.1840598,4.3108218 0 0 0 -3.0037,-2.879332 z" />
    <path
       id="rect506-8-4-6-3"
       style="vector-effect:non-scaling-stroke;fill:none;fill-opacity:1;stroke:#fe0000;stroke-width:0.264583;stroke-dasharray:none;stroke-opacity:1;-inkscape-stroke:hairline;stop-color:#000000"
       d="m -113.3055,-14.487064 a 3.1840598,4.3108218 0 0 0 -3.0011,2.879324 h -1.9986 V 8.5129329 h 10 V -11.607732 h -1.9966 a 3.1840598,4.3108218 0 0 0 -3.0037,-2.879332 z" />
    <g
       id="g1542">
      <g
         id="g957"
         transform="matrix(1.5,0,0,1.5,-71.931973,-83.387583)">
        <path
           d="M 5.380614,4.9060049 H 205.38061 V 204.906 H 5.380614"
           id="path531"
           style="stroke-width:25" />
        <path
           fill="#ffffff"
           d="M 5.380614,4.9060049 H 205.38061 V 29.906005 H 5.380614 m 0,25 H 205.38061 V 79.906004 H 5.380614 m 0,25.000006 H 205.38061 V 129.906 H 5.380614 m 0,25 H 205.38061 v 25 H 5.380614 m 25,-174.9999951 V 204.906 h 25 V 4.9060049 m 24.999997,0 V 204.906 H 105.38061 V 4.9060049 m 25,0 V 204.906 h 25 V 4.9060049 m 25,0 V 204.906 h 25 V 4.9060049"
           id="path533"
           style="stroke-width:25" />
      </g>
      <text
         xml:space="preserve"
         style="font-style:normal;font-variant:normal;font-weight:bold;font-stretch:normal;font-size:6.05557px;font-family:Arial;-inkscape-font-specification:'Arial, Bold';font-variant-ligatures:normal;font-variant-caps:normal;font-variant-numeric:normal;font-variant-east-asian:normal;fill:#000300;stroke:none;stroke-width:1.04597;stroke-opacity:1;stop-color:#000000"
         x="-51.798851"
         y="-68.371422"
         id="text1621-3"
         transform="scale(0.85826876,1.1651362)"><tspan
           sodipodi:role="line"
           id="tspan1619-6"
           style="font-style:normal;font-variant:normal;font-weight:bold;font-stretch:normal;font-size:6.05557px;font-family:Arial;-inkscape-font-specification:'Arial, Bold';font-variant-ligatures:normal;font-variant-caps:normal;font-variant-numeric:normal;font-variant-east-asian:normal;stroke-width:1.04598"
           x="-51.798851"
           y="-68.371422">a                        b                        c                       d                        e                       f                       g                        h</tspan></text>
      <text
         xml:space="preserve"
         style="font-style:normal;font-variant:normal;font-weight:bold;font-stretch:normal;font-size:6.05557px;font-family:Arial;-inkscape-font-specification:'Arial, Bold';font-variant-ligatures:normal;font-variant-caps:normal;font-variant-numeric:normal;font-variant-east-asian:normal;fill:#000300;stroke:none;stroke-width:1.04597;stroke-opacity:1;stop-color:#000000"
         x="-51.798851"
         y="198.44765"
         id="text1621-3-3"
         transform="scale(0.85826876,1.1651362)"><tspan
           sodipodi:role="line"
           id="tspan1619-6-5"
           style="font-style:normal;font-variant:normal;font-weight:bold;font-stretch:normal;font-size:6.05557px;font-family:Arial;-inkscape-font-specification:'Arial, Bold';font-variant-ligatures:normal;font-variant-caps:normal;font-variant-numeric:normal;font-variant-east-asian:normal;stroke-width:1.04598"
           x="-51.798851"
           y="198.44765">a                        b                        c                       d                        e                       f                       g                        h</tspan></text>
      <text
         xml:space="preserve"
         style="font-style:normal;font-variant:normal;font-weight:bold;font-stretch:normal;font-size:4.72741px;font-family:Arial;-inkscape-font-specification:'Arial, Bold';font-variant-ligatures:normal;font-variant-caps:normal;font-variant-numeric:normal;font-variant-east-asian:normal;fill:#000300;stroke:none;stroke-width:0.418766;stroke-opacity:1;stop-color:#000000"
         x="202.86446"
         y="-64.617821"
         id="text2384-5"
         transform="scale(1.1805113,0.84709058)"><tspan
           sodipodi:role="line"
           style="stroke-width:0.418767"
           x="202.86446"
           y="-64.617821"
           id="tspan2403-9">8</tspan><tspan
           sodipodi:role="line"
           style="stroke-width:0.418767"
           x="202.86446"
           y="-58.708553"
           id="tspan1110" /><tspan
           sodipodi:role="line"
           style="stroke-width:0.418767"
           x="202.86446"
           y="-52.799294"
           id="tspan1112" /><tspan
           sodipodi:role="line"
           style="stroke-width:0.418767"
           x="202.86446"
           y="-46.89003"
           id="tspan1114" /><tspan
           sodipodi:role="line"
           style="stroke-width:0.418767"
           x="202.86446"
           y="-40.980766"
           id="tspan1116" /><tspan
           sodipodi:role="line"
           style="stroke-width:0.418767"
           x="202.86446"
           y="-35.071507"
           id="tspan1118" /><tspan
           sodipodi:role="line"
           style="stroke-width:0.418767"
           x="202.86446"
           y="-29.162243"
           id="tspan2411-2" /><tspan
           sodipodi:role="line"
           style="stroke-width:0.418767"
           x="202.86446"
           y="-23.252981"
           id="tspan2413-2" /><tspan
           sodipodi:role="line"
           style="stroke-width:0.418767"
           x="202.86446"
           y="-17.343719"
           id="tspan2415-8">7</tspan><tspan
           sodipodi:role="line"
           style="stroke-width:0.418767"
           x="202.86446"
           y="-11.434457"
           id="tspan1120" /><tspan
           sodipodi:role="line"
           style="stroke-width:0.418767"
           x="202.86446"
           y="-5.5251942"
           id="tspan1122" /><tspan
           sodipodi:role="line"
           style="stroke-width:0.418767"
           x="202.86446"
           y="0.3840681"
           id="tspan1124" /><tspan
           sodipodi:role="line"
           style="stroke-width:0.418767"
           x="202.86446"
           y="6.2933307"
           id="tspan1126" /><tspan
           sodipodi:role="line"
           style="stroke-width:0.418767"
           x="202.86446"
           y="12.202593"
           id="tspan2417-9" /><tspan
           sodipodi:role="line"
           style="stroke-width:0.418767"
           x="202.86446"
           y="18.111855"
           id="tspan2419-7" /><tspan
           sodipodi:role="line"
           style="stroke-width:0.418767"
           x="202.86446"
           y="24.021118"
           id="tspan2453-3">6</tspan><tspan
           sodipodi:role="line"
           style="stroke-width:0.418767"
           x="202.86446"
           y="29.930378"
           id="tspan1132" /><tspan
           sodipodi:role="line"
           style="stroke-width:0.418767"
           x="202.86446"
           y="35.839642"
           id="tspan1134" /><tspan
           sodipodi:role="line"
           style="stroke-width:0.418767"
           x="202.86446"
           y="41.748905"
           id="tspan1136" /><tspan
           sodipodi:role="line"
           style="stroke-width:0.418767"
           x="202.86446"
           y="47.658165"
           id="tspan1138" /><tspan
           sodipodi:role="line"
           style="stroke-width:0.418767"
           x="202.86446"
           y="53.567429"
           id="tspan2481-6" /><tspan
           sodipodi:role="line"
           style="stroke-width:0.418767"
           x="202.86446"
           y="59.476688"
           id="tspan2501-1" /><tspan
           sodipodi:role="line"
           style="stroke-width:0.418767"
           x="202.86446"
           y="65.385948"
           id="tspan2511-2">5</tspan><tspan
           sodipodi:role="line"
           style="stroke-width:0.418767"
           x="202.86446"
           y="71.295212"
           id="tspan1150" /><tspan
           sodipodi:role="line"
           style="stroke-width:0.418767"
           x="202.86446"
           y="77.204475"
           id="tspan1152" /><tspan
           sodipodi:role="line"
           style="stroke-width:0.418767"
           x="202.86446"
           y="83.113739"
           id="tspan1154" /><tspan
           sodipodi:role="line"
           style="stroke-width:0.418767"
           x="202.86446"
           y="89.023003"
           id="tspan1128" /><tspan
           sodipodi:role="line"
           style="stroke-width:0.418767"
           x="202.86446"
           y="94.932259"
           id="tspan1130" /><tspan
           sodipodi:role="line"
           style="stroke-width:0.418767"
           x="202.86446"
           y="100.84152"
           id="tspan2513-9" /><tspan
           sodipodi:role="line"
           style="stroke-width:0.418767"
           x="202.86446"
           y="106.75079"
           id="tspan2517-1" /><tspan
           sodipodi:role="line"
           style="stroke-width:0.418767"
           x="202.86446"
           y="112.66005"
           id="tspan1174">4</tspan><tspan
           sodipodi:role="line"
           style="stroke-width:0.418767"
           x="202.86446"
           y="118.56931"
           id="tspan1206" /><tspan
           sodipodi:role="line"
           style="stroke-width:0.418767"
           x="202.86446"
           y="124.47858"
           id="tspan1208" /><tspan
           sodipodi:role="line"
           style="stroke-width:0.418767"
           x="202.86446"
           y="130.38783"
           id="tspan1210" /><tspan
           sodipodi:role="line"
           style="stroke-width:0.418767"
           x="202.86446"
           y="136.2971"
           id="tspan1212" /><tspan
           sodipodi:role="line"
           style="stroke-width:0.418767"
           x="202.86446"
           y="142.20636"
           id="tspan1214" /><tspan
           sodipodi:role="line"
           style="stroke-width:0.418767"
           x="202.86446"
           y="148.11562"
           id="tspan1216" /><tspan
           sodipodi:role="line"
           style="stroke-width:0.418767"
           x="202.86446"
           y="154.02489"
           id="tspan1218">3</tspan><tspan
           sodipodi:role="line"
           style="stroke-width:0.418767"
           x="202.86446"
           y="159.93414"
           id="tspan1158" /><tspan
           sodipodi:role="line"
           style="stroke-width:0.418767"
           x="202.86446"
           y="165.84341"
           id="tspan1160" /><tspan
           sodipodi:role="line"
           style="stroke-width:0.418767"
           x="202.86446"
           y="171.75267"
           id="tspan1162" /><tspan
           sodipodi:role="line"
           style="stroke-width:0.418767"
           x="202.86446"
           y="177.66193"
           id="tspan1164" /><tspan
           sodipodi:role="line"
           style="stroke-width:0.418767"
           x="202.86446"
           y="183.5712"
           id="tspan1166" /><tspan
           sodipodi:role="line"
           style="stroke-width:0.418767"
           x="202.86446"
           y="189.48045"
           id="tspan2519-9" /><tspan
           sodipodi:role="line"
           style="stroke-width:0.418767"
           x="202.86446"
           y="195.38972"
           id="tspan2525-8" /><tspan
           sodipodi:role="line"
           style="stroke-width:0.418767"
           x="202.86446"
           y="201.29898"
           id="tspan2529-5">2</tspan><tspan
           sodipodi:role="line"
           style="stroke-width:0.418767"
           x="202.86446"
           y="207.20825"
           id="tspan2531-0" /><tspan
           sodipodi:role="line"
           style="stroke-width:0.418767"
           x="202.86446"
           y="213.11751"
           id="tspan2533-3" /><tspan
           sodipodi:role="line"
           style="stroke-width:0.418767"
           x="202.86446"
           y="219.02676"
           id="tspan2535-6" /><tspan
           sodipodi:role="line"
           style="stroke-width:0.418767"
           x="202.86446"
           y="224.93604"
           id="tspan1228" /><tspan
           sodipodi:role="line"
           style="stroke-width:0.418767"
           x="202.86446"
           y="230.84529"
           id="tspan1230" /><tspan
           sodipodi:role="line"
           style="stroke-width:0.418767"
           x="202.86446"
           y="236.75456"
           id="tspan1232" /><tspan
           sodipodi:role="line"
           style="stroke-width:0.418767"
           x="202.86446"
           y="242.66382"
           id="tspan1234">1</tspan></text>
      <text
         xml:space="preserve"
         style="font-style:normal;font-variant:normal;font-weight:bold;font-stretch:normal;font-size:4.72741px;font-family:Arial;-inkscape-font-specification:'Arial, Bold';font-variant-ligatures:normal;font-variant-caps:normal;font-variant-numeric:normal;font-variant-east-asian:normal;fill:#000300;stroke:none;stroke-width:0.418766;stroke-opacity:1;stop-color:#000000"
         x="-60.723415"
         y="-64.617821"
         id="text2384-5-6"
         transform="scale(1.1805113,0.84709058)"><tspan
           sodipodi:role="line"
           style="stroke-width:0.418767"
           x="-60.723415"
           y="-64.617821"
           id="tspan2403-9-2">8</tspan><tspan
           sodipodi:role="line"
           style="stroke-width:0.418767"
           x="-60.723415"
           y="-58.708553"
           id="tspan1110-9" /><tspan
           sodipodi:role="line"
           style="stroke-width:0.418767"
           x="-60.723415"
           y="-52.799294"
           id="tspan1112-1" /><tspan
           sodipodi:role="line"
           style="stroke-width:0.418767"
           x="-60.723415"
           y="-46.89003"
           id="tspan1114-2" /><tspan
           sodipodi:role="line"
           style="stroke-width:0.418767"
           x="-60.723415"
           y="-40.980766"
           id="tspan1116-7" /><tspan
           sodipodi:role="line"
           style="stroke-width:0.418767"
           x="-60.723415"
           y="-35.071507"
           id="tspan1118-0" /><tspan
           sodipodi:role="line"
           style="stroke-width:0.418767"
           x="-60.723415"
           y="-29.162243"
           id="tspan2411-2-9" /><tspan
           sodipodi:role="line"
           style="stroke-width:0.418767"
           x="-60.723415"
           y="-23.252981"
           id="tspan2413-2-3" /><tspan
           sodipodi:role="line"
           style="stroke-width:0.418767"
           x="-60.723415"
           y="-17.343719"
           id="tspan2415-8-6">7</tspan><tspan
           sodipodi:role="line"
           style="stroke-width:0.418767"
           x="-60.723415"
           y="-11.434457"
           id="tspan1120-0" /><tspan
           sodipodi:role="line"
           style="stroke-width:0.418767"
           x="-60.723415"
           y="-5.5251942"
           id="tspan1122-6" /><tspan
           sodipodi:role="line"
           style="stroke-width:0.418767"
           x="-60.723415"
           y="0.3840681"
           id="tspan1124-2" /><tspan
           sodipodi:role="line"
           style="stroke-width:0.418767"
           x="-60.723415"
           y="6.2933307"
           id="tspan1126-6" /><tspan
           sodipodi:role="line"
           style="stroke-width:0.418767"
           x="-60.723415"
           y="12.202593"
           id="tspan2417-9-1" /><tspan
           sodipodi:role="line"
           style="stroke-width:0.418767"
           x="-60.723415"
           y="18.111855"
           id="tspan2419-7-8" /><tspan
           sodipodi:role="line"
           style="stroke-width:0.418767"
           x="-60.723415"
           y="24.021118"
           id="tspan2453-3-7">6</tspan><tspan
           sodipodi:role="line"
           style="stroke-width:0.418767"
           x="-60.723415"
           y="29.930378"
           id="tspan1132-9" /><tspan
           sodipodi:role="line"
           style="stroke-width:0.418767"
           x="-60.723415"
           y="35.839642"
           id="tspan1134-2" /><tspan
           sodipodi:role="line"
           style="stroke-width:0.418767"
           x="-60.723415"
           y="41.748905"
           id="tspan1136-0" /><tspan
           sodipodi:role="line"
           style="stroke-width:0.418767"
           x="-60.723415"
           y="47.658165"
           id="tspan1138-2" /><tspan
           sodipodi:role="line"
           style="stroke-width:0.418767"
           x="-60.723415"
           y="53.567429"
           id="tspan2481-6-3" /><tspan
           sodipodi:role="line"
           style="stroke-width:0.418767"
           x="-60.723415"
           y="59.476688"
           id="tspan2501-1-7" /><tspan
           sodipodi:role="line"
           style="stroke-width:0.418767"
           x="-60.723415"
           y="65.385948"
           id="tspan2511-2-5">5</tspan><tspan
           sodipodi:role="line"
           style="stroke-width:0.418767"
           x="-60.723415"
           y="71.295212"
           id="tspan1150-9" /><tspan
           sodipodi:role="line"
           style="stroke-width:0.418767"
           x="-60.723415"
           y="77.204475"
           id="tspan1152-2" /><tspan
           sodipodi:role="line"
           style="stroke-width:0.418767"
           x="-60.723415"
           y="83.113739"
           id="tspan1154-2" /><tspan
           sodipodi:role="line"
           style="stroke-width:0.418767"
           x="-60.723415"
           y="89.023003"
           id="tspan1128-8" /><tspan
           sodipodi:role="line"
           style="stroke-width:0.418767"
           x="-60.723415"
           y="94.932259"
           id="tspan1130-9" /><tspan
           sodipodi:role="line"
           style="stroke-width:0.418767"
           x="-60.723415"
           y="100.84152"
           id="tspan2513-9-7" /><tspan
           sodipodi:role="line"
           style="stroke-width:0.418767"
           x="-60.723415"
           y="106.75079"
           id="tspan2517-1-3" /><tspan
           sodipodi:role="line"
           style="stroke-width:0.418767"
           x="-60.723415"
           y="112.66005"
           id="tspan1174-6">4</tspan><tspan
           sodipodi:role="line"
           style="stroke-width:0.418767"
           x="-60.723415"
           y="118.56931"
           id="tspan1206-1" /><tspan
           sodipodi:role="line"
           style="stroke-width:0.418767"
           x="-60.723415"
           y="124.47858"
           id="tspan1208-2" /><tspan
           sodipodi:role="line"
           style="stroke-width:0.418767"
           x="-60.723415"
           y="130.38783"
           id="tspan1210-9" /><tspan
           sodipodi:role="line"
           style="stroke-width:0.418767"
           x="-60.723415"
           y="136.2971"
           id="tspan1212-3" /><tspan
           sodipodi:role="line"
           style="stroke-width:0.418767"
           x="-60.723415"
           y="142.20636"
           id="tspan1214-1" /><tspan
           sodipodi:role="line"
           style="stroke-width:0.418767"
           x="-60.723415"
           y="148.11562"
           id="tspan1216-9" /><tspan
           sodipodi:role="line"
           style="stroke-width:0.418767"
           x="-60.723415"
           y="154.02489"
           id="tspan1218-4">3</tspan><tspan
           sodipodi:role="line"
           style="stroke-width:0.418767"
           x="-60.723415"
           y="159.93414"
           id="tspan1158-7" /><tspan
           sodipodi:role="line"
           style="stroke-width:0.418767"
           x="-60.723415"
           y="165.84341"
           id="tspan1160-8" /><tspan
           sodipodi:role="line"
           style="stroke-width:0.418767"
           x="-60.723415"
           y="171.75267"
           id="tspan1162-4" /><tspan
           sodipodi:role="line"
           style="stroke-width:0.418767"
           x="-60.723415"
           y="177.66193"
           id="tspan1164-5" /><tspan
           sodipodi:role="line"
           style="stroke-width:0.418767"
           x="-60.723415"
           y="183.5712"
           id="tspan1166-0" /><tspan
           sodipodi:role="line"
           style="stroke-width:0.418767"
           x="-60.723415"
           y="189.48045"
           id="tspan2519-9-3" /><tspan
           sodipodi:role="line"
           style="stroke-width:0.418767"
           x="-60.723415"
           y="195.38972"
           id="tspan2525-8-6" /><tspan
           sodipodi:role="line"
           style="stroke-width:0.418767"
           x="-60.723415"
           y="201.29898"
           id="tspan2529-5-1">2</tspan><tspan
           sodipodi:role="line"
           style="stroke-width:0.418767"
           x="-60.723415"
           y="207.20825"
           id="tspan2531-0-0" /><tspan
           sodipodi:role="line"
           style="stroke-width:0.418767"
           x="-60.723415"
           y="213.11751"
           id="tspan2533-3-6" /><tspan
           sodipodi:role="line"
           style="stroke-width:0.418767"
           x="-60.723415"
           y="219.02676"
           id="tspan2535-6-3" /><tspan
           sodipodi:role="line"
           style="stroke-width:0.418767"
           x="-60.723415"
           y="224.93604"
           id="tspan1228-2" /><tspan
           sodipodi:role="line"
           style="stroke-width:0.418767"
           x="-60.723415"
           y="230.84529"
           id="tspan1230-0" /><tspan
           sodipodi:role="line"
           style="stroke-width:0.418767"
           x="-60.723415"
           y="236.75456"
           id="tspan1232-6" /><tspan
           sodipodi:role="line"
           style="stroke-width:0.418767"
           x="-60.723415"
           y="242.66382"
           id="tspan1234-1">1</tspan></text>
      <path
         id="rect506-8-4-6-0"
         style="vector-effect:non-scaling-stroke;fill:none;fill-opacity:1;stroke:#fe0000;stroke-width:0.264583;stroke-dasharray:none;stroke-opacity:1;-inkscape-stroke:hairline;stop-color:#000000"
         d="m -90.310879,-14.487064 a 3.1840598,4.3108218 0 0 0 -3.0011,2.879324 h -1.9986 V 8.5129329 h 10 V -11.607732 h -1.9966 a 3.1840598,4.3108218 0 0 0 -3.0037,-2.879332 z" />
    </g>
    <path
       id="rect506-8-4-6-78"
       style="vector-effect:non-scaling-stroke;fill:none;fill-opacity:1;stroke:#fe0000;stroke-width:0.264583;stroke-dasharray:none;stroke-opacity:1;-inkscape-stroke:hairline;stop-color:#000000"
       d="m -159.29475,-14.487064 a 3.1840598,4.3108218 0 0 0 -3.0011,2.879324 h -1.9986 V 8.5129329 h 10 V -11.607732 h -1.9966 a 3.1840598,4.3108218 0 0 0 -3.0037,-2.879332 z" />
    <path
       id="rect506-8-4-6-6"
       style="vector-effect:non-scaling-stroke;fill:none;fill-opacity:1;stroke:#fe0000;stroke-width:0.264583;stroke-dasharray:none;stroke-opacity:1;-inkscape-stroke:hairline;stop-color:#000000"
       d="m -205.284,-14.487064 a 3.1840598,4.3108218 0 0 0 -3.0011,2.879324 h -1.9986 V 8.5129329 h 10 V -11.607732 h -1.9966 a 3.1840598,4.3108218 0 0 0 -3.0037,-2.879332 z" />
    <path
       id="rect506-8-4-6-8"
       style="vector-effect:non-scaling-stroke;fill:none;fill-opacity:1;stroke:#fe0000;stroke-width:0.264583;stroke-dasharray:none;stroke-opacity:1;-inkscape-stroke:hairline;stop-color:#000000"
       d="m -228.27862,-14.487064 a 3.1840598,4.3108218 0 0 0 -3.0011,2.879324 h -1.9986 V 8.5129329 h 10 V -11.607732 h -1.9966 a 3.1840598,4.3108218 0 0 0 -3.0037,-2.879332 z" />
    <path
       id="rect506-8-4-6-84"
       style="vector-effect:non-scaling-stroke;fill:none;fill-opacity:1;stroke:#fe0000;stroke-width:0.264583;stroke-dasharray:none;stroke-opacity:1;-inkscape-stroke:hairline;stop-color:#000000"
       d="m -251.27324,-14.487064 a 3.1840598,4.3108218 0 0 0 -3.0011,2.879324 h -1.9986 V 8.5129329 h 10 V -11.607732 h -1.9966 a 3.1840598,4.3108218 0 0 0 -3.0037,-2.879332 z" />
    <path
       id="rect1275-5-9-6-9"
       style="vector-effect:non-scaling-stroke;fill:none;fill-opacity:1;stroke:#fe0000;stroke-width:0.264583;stroke-dasharray:none;stroke-opacity:1;-inkscape-stroke:hairline;stop-color:#000000"
       d="m -89.414089,-53.442861 v 9.427615 h -1.57755 v 10.888573 l 1.84216,0.41709 v 9.266722 H -103.8855 v -9.266722 l 1.84215,-0.41709 v -10.888574 h -2.10613 v -9.427614 h 3.36194 v 4.463845 h 2.325071 v -4.463845 h 3.36197 v 4.463845 h 2.32443 v -4.463845 z"
       sodipodi:nodetypes="ccccccccccccccccccccc" />
    <path
       id="rect1494-1-1-0"
       style="vector-effect:non-scaling-stroke;fill:none;fill-opacity:1;stroke:#fe0000;stroke-width:0.264583;stroke-dasharray:none;stroke-opacity:1;-inkscape-stroke:hairline;stop-color:#000000"
       d="m -115.25723,-54.295282 c 3.19894,4.517946 6.39782,9.035911 9.59677,13.553838 -1.47903,1.418166 -2.95807,2.836354 -4.43709,4.254522 -0.96467,-1.362349 -1.92932,-2.724708 -2.89398,-4.087055 v 6.715482 l 1.68642,0.299405 v 9.2449 c -4.78506,0.02616 -9.57066,0.02424 -14.35535,0 v -9.2449 l 2.00422,-0.3 v -0.995869 h 1.50393 v -2.068109 h -1.50393 v -2.068812 h 1.50393 v -2.068818 h -1.50393 v -2.068117 h 1.50393 v -2.068805 h -1.50393 v -2.068823 h 1.50393 v -2.0681 h -1.50393 c -0.0933,-0.699007 0.087,-1.305233 0.55896,-1.776599 0.81987,-0.851509 1.56993,-2.699371 2.41103,-2.938405 0.8662,0.711038 1.70225,2.394217 2.58791,2.478134 0.94706,-0.907944 1.89408,-1.815902 2.84111,-2.723869 z m -0.75687,6.25062 c -1.41156,-0.225541 -1.57833,2.407032 -0.31592,2.76807 1.25664,0.351143 2.00246,-1.823915 0.87645,-2.581598 -0.16655,-0.122736 -0.36379,-0.186352 -0.56053,-0.186472 z"
       sodipodi:nodetypes="cccccccccccccccccccccccccccccccccc" />
    <path
       id="rect1494-7-6-2-2-45"
       style="vector-effect:non-scaling-stroke;fill:none;fill-opacity:1;stroke:#fe0000;stroke-width:0.264583;stroke-dasharray:none;stroke-opacity:1;-inkscape-stroke:hairline;stop-color:#000000"
       d="m -204.03202,-54.398768 c -1.02116,1.28049 -2.04231,2.56098 -3.06346,3.841481 1.1123,1.43808 2.22462,2.876181 3.33691,4.314281 -0.42429,0.58719 -0.84859,1.17438 -1.27288,1.76156 -1.13403,-1.46617 -2.26806,-2.93233 -3.40209,-4.39852 -1.04754,1.31347 -2.09509,2.62692 -3.14263,3.94037 0.73206,0.93977 1.46413,1.87951 2.19619,2.81927 v 8.15809 l -1.76742,0.29966 v 9.26381 h 14.14246 v -9.26381 l -1.76743,-0.29966 v -8.1125 c 0.73205,-0.91787 1.46413,-1.83574 2.1962,-2.75361 -2.48529,-3.19013 -4.97058,-6.380291 -7.45585,-9.570422 z"
       sodipodi:nodetypes="cccccccccccccccc" />
    <path
       id="rect1275-5-9-6-9-2"
       style="vector-effect:non-scaling-stroke;fill:none;fill-opacity:1;stroke:#fe0000;stroke-width:0.264583;stroke-dasharray:none;stroke-opacity:1;-inkscape-stroke:hairline;stop-color:#000000"
       d="m -251.17869,-55.618331 v 9.427621 h 1.57755 v 10.88857 l -1.84216,0.417091 v 9.26672 h 14.73602 v -9.26672 l -1.84215,-0.417091 v -10.88857 h 2.10613 v -9.427621 h -3.36194 v 4.463851 h -2.32507 v -4.463851 h -3.36197 v 4.463851 h -2.32443 v -4.463851 z"
       sodipodi:nodetypes="ccccccccccccccccccccc" />
    <path
       id="rect1494-1-1-0-5"
       style="vector-effect:non-scaling-stroke;fill:none;fill-opacity:1;stroke:#fe0000;stroke-width:0.264583;stroke-dasharray:none;stroke-opacity:1;-inkscape-stroke:hairline;stop-color:#000000"
       d="m -226.22887,-54.398766 c -3.19893,4.517941 -6.39782,9.03591 -9.59677,13.55384 1.47903,1.41816 2.95807,2.836351 4.43709,4.25452 0.96468,-1.36235 1.92932,-2.72471 2.89398,-4.08706 v 6.71548 l -1.68642,0.29941 v 9.2449 c 4.78506,0.0262 9.57066,0.0242 14.35535,0 v -9.2449 l -2.00422,-0.299999 v -0.995871 h -1.50393 v -2.068109 h 1.50393 v -2.06881 h -1.50393 v -2.068821 h 1.50393 v -2.068109 h -1.50393 v -2.06881 h 1.50393 v -2.06882 h -1.50393 v -2.068101 h 1.50393 c 0.0933,-0.69901 -0.087,-1.30523 -0.55896,-1.776601 -0.81987,-0.851509 -1.56993,-2.69937 -2.41103,-2.93841 -0.8662,0.71104 -1.70225,2.39422 -2.58791,2.47814 -0.94706,-0.90795 -1.89408,-1.8159 -2.84111,-2.723869 z m 0.75687,6.250621 c 1.41156,-0.22554 1.57833,2.40703 0.31592,2.76807 -1.25664,0.35114 -2.00246,-1.82392 -0.87645,-2.5816 0.16655,-0.12274 0.36379,-0.18635 0.56053,-0.18647 z"
       sodipodi:nodetypes="cccccccccccccccccccccccccccccccccc" />
    <path
       id="path1361"
       style="vector-effect:non-scaling-stroke;fill:none;fill-opacity:1;stroke:#ff0000;stroke-width:0.264583;stroke-dasharray:none;stroke-opacity:1;-inkscape-stroke:hairline;stop-color:#000000"
       d="m -184.74292,-61.698477 c -0.87062,-8e-6 -1.57666,0.712635 -1.57665,1.591117 0,0.114149 0.0129,0.22695 0.0367,0.338481 l -6.54223,4.079337 5.07049,3.418396 -6.98821,27.572478 8.62015,-0.0062 v -6.007902 h 2.99982 v 6.005835 l 8.37985,-0.0057 -6.93446,-27.46499 5.01571,-3.692798 -6.53138,-3.955831 c 0.0168,-0.0931 0.0262,-0.186598 0.0264,-0.28112 1e-5,-0.878482 -0.7055,-1.591125 -1.57613,-1.591117 z m -0.061,16.938501 0.68317,2.152323 1.68568,0.86093 -1.65261,0.774629 -0.59531,2.119251 -0.68265,-2.152324 -1.68569,-0.861446 1.65262,-0.774113 z" />
    <path
       id="rect1275-5-9-0-0-2-3"
       style="vector-effect:non-scaling-stroke;fill:none;fill-opacity:1;stroke:#fe0000;stroke-width:0.264583;stroke-dasharray:none;stroke-opacity:1;-inkscape-stroke:hairline;stop-color:#000000"
       inkscape:transform-center-x="-5.74484"
       inkscape:transform-center-y="-22.067508"
       d="m -162.24493,25.032687 2.42622,5.70271 5.21742,-1.82798 -1.25166,6.53174 4.68779,1.93528 -3.88269,3.84558 -1.10161,-1.30682 -0.0201,0.0242 v 1.60853 h -1.31939 v 1.43306 h 1.33678 v 1.96124 h -1.33678 v 1.35835 h 1.3178 v 1.96123 h -1.3178 v 0.84149 l 1.90467,0.274691 -2.6e-4,8.656669 h -13.94697 v -8.65137 l 1.71978,-0.27999 v -5.04831 l -1.36149,1.43798 -1.71399,-5.505885 1.0775,-1.450075 0.11051,-0.11639 2.80879,-3.24894 3.31052,4.1078 0.56807,-0.73291 0.67056,-0.91243 -3.24736,-4.029 2.04624,-2.4622 -0.71838,-0.85188 z"
       sodipodi:nodetypes="ccccccccccccccccccccccccccccccccccccc" />
    <path
       id="rect1275-5-9-0-0-2-3-3"
       style="vector-effect:non-scaling-stroke;fill:none;fill-opacity:1;stroke:#fe0000;stroke-width:0.264583;stroke-dasharray:none;stroke-opacity:1;-inkscape-stroke:hairline;stop-color:#000000"
       inkscape:transform-center-x="5.74484"
       inkscape:transform-center-y="-22.067508"
       d="m -181.15812,25.128779 -2.42622,5.70271 -5.21742,-1.82798 1.25166,6.53174 -4.68779,1.93528 3.88269,3.84558 1.10161,-1.30682 0.0201,0.0242 v 1.60853 h 1.31939 v 1.43306 h -1.33678 v 1.96124 h 1.33678 v 1.35835 h -1.3178 v 1.96123 h 1.3178 v 0.84149 l -1.90467,0.274691 2.6e-4,8.656669 h 13.94697 v -8.65137 l -1.71978,-0.27999 v -5.04831 l 1.36149,1.43798 1.71399,-5.505885 -1.0775,-1.450075 -0.11051,-0.11639 -2.80879,-3.24894 -3.31052,4.1078 -0.56807,-0.73291 -0.67056,-0.91243 3.24736,-4.029 -2.04624,-2.4622 0.71838,-0.85188 z"
       sodipodi:nodetypes="ccccccccccccccccccccccccccccccccccccc" />
    <path
       id="rect1275-5-9-6-4-6-0"
       style="vector-effect:non-scaling-stroke;fill:none;fill-opacity:1;stroke:#fe0000;stroke-width:0.264583;stroke-dasharray:none;stroke-opacity:1;-inkscape-stroke:hairline;stop-color:#000000"
       d="m -244.06716,26.032667 v 7.87038 h 1.54657 1.5415 v 1.93937 h -1.47439 v 1.99868 h 1.47439 v 1.99837 h -1.47439 v 1.99778 h 1.47439 v 1.99867 h -1.47439 v 1.99838 h 1.47439 v 1.99777 h -1.47439 v 0.96205 l -1.96449,0.28964 v 8.93067 c 4.69035,0.0233 10.95798,0.0253 15.6487,0 v -8.93067 l -3.22974,-0.28904 v -6.48723 c 0.94564,1.31602 1.89141,2.63221 2.83707,3.94822 1.44985,-1.36993 2.8996,-2.74001 4.34946,-4.10995 -1.97418,-2.74755 -3.94822,-5.49515 -5.92237,-8.24271 h 1.11269 v -7.87038 h -3.29578 v 3.07542 h -1.26214 c -0.0133,-0.0185 -0.0266,-0.0369 -0.0398,-0.0553 -0.0196,0.0186 -0.0393,0.0369 -0.0587,0.0553 h -0.91843 v -3.07542 h -3.29578 v 3.07542 h -2.27857 v -3.07542 z m 8.97904,9.04569 c 0.0409,0.002 0.0829,0.006 0.12614,0.0126 0.19287,1.2e-4 0.38637,0.0614 0.54964,0.18001 1.1038,0.73191 0.3727,2.83297 -0.85916,2.49377 -1.19884,-0.33786 -1.08305,-2.73495 0.18338,-2.68636 z"
       sodipodi:nodetypes="ccccccccccccccccccccccccccccccccccccccccccscccss" />
    <path
       id="rect1275-5-9-6-4-6-0-0"
       style="vector-effect:non-scaling-stroke;fill:none;fill-opacity:1;stroke:#fe0000;stroke-width:0.264583;stroke-dasharray:none;stroke-opacity:1;-inkscape-stroke:hairline;stop-color:#000000"
       d="m -200.63517,26.032667 v 7.87038 h -1.54657 -1.5415 v 1.93937 h 1.47439 v 1.99868 h -1.47439 v 1.99837 h 1.47439 v 1.99778 h -1.47439 v 1.99867 h 1.47439 v 1.99838 h -1.47439 v 1.99777 h 1.47439 v 0.96205 l 1.96449,0.28964 v 8.93067 c -4.69035,0.0233 -10.95798,0.0253 -15.6487,0 v -8.93067 l 3.22974,-0.28904 v -6.48723 c -0.94564,1.31602 -1.89141,2.63221 -2.83707,3.94822 -1.44985,-1.36993 -2.8996,-2.74001 -4.34946,-4.10995 1.97418,-2.74755 3.94822,-5.49515 5.92237,-8.24271 h -1.11269 v -7.87038 h 3.29578 v 3.07542 h 1.26214 c 0.0133,-0.0185 0.0266,-0.0369 0.0398,-0.0553 0.0196,0.0186 0.0393,0.0369 0.0587,0.0553 h 0.91843 v -3.07542 h 3.29578 v 3.07542 h 2.27857 v -3.07542 z m -8.97904,9.04569 c -0.0409,0.002 -0.0829,0.006 -0.12614,0.0126 -0.19287,1.2e-4 -0.38637,0.0614 -0.54964,0.18001 -1.1038,0.73191 -0.3727,2.83297 0.85916,2.49377 1.19884,-0.33786 1.08305,-2.73495 -0.18338,-2.68636 z"
       sodipodi:nodetypes="ccccccccccccccccccccccccccccccccccccccccccscccss" />
    <path
       id="path3491"
       style="vector-effect:non-scaling-stroke;fill:none;stroke:#ff0000;stroke-width:0.261215;stroke-dasharray:none;-inkscape-stroke:hairline;stop-color:#000000"
       d="m -178.54914,-76.458397 -3.04171,-0.02514 0.0543,5.994827 h -3.00033 l -0.0174,-5.956789 -3.38174,0.0045 -3.25012,11.812504 16.10098,-0.01953 z"
       sodipodi:nodetypes="ccccccccc" />
    <path
       id="path3491-7"
       style="vector-effect:non-scaling-stroke;fill:none;stroke:#ff0000;stroke-width:0.261215;stroke-dasharray:none;-inkscape-stroke:hairline;stop-color:#000000"
       d="m -157.29117,-78.005246 -2.98741,0.06511 0.0123,5.826604 -3.03203,0.0013 -0.0599,-5.823804 -3.13362,-0.04275 -3.28692,11.830732 15.86278,0.06624 z"
       sodipodi:nodetypes="ccccccccc" />
    <path
       id="path3491-7-9"
       style="vector-effect:non-scaling-stroke;fill:none;stroke:#ff0000;stroke-width:0.252791;stroke-dasharray:none;-inkscape-stroke:hairline;stop-color:#000000"
       d="m -133.8744,-78.507225 -2.52218,0.01397 -8e-5,4.968263 -3.06301,-0.02408 9e-5,-4.923206 -2.67353,-0.01977 -2.82139,9.972251 14.0774,0.01257 z"
       sodipodi:nodetypes="ccccccccc" />
    <path
       style="vector-effect:non-scaling-stroke;fill:none;fill-opacity:1;stroke:#fe0000;stroke-width:0.264583;stroke-dasharray:none;stroke-opacity:1;-inkscape-stroke:hairline;stop-color:#000000"
       d="m -138.22451,-66.655179 c -2.48527,3.190128 -4.97059,6.380338 -7.45588,9.570475 0.73207,0.917869 1.4642,1.835451 2.19625,2.753321 v 8.112683 l -1.76733,0.299723 v 9.263517 h 14.14229 v -9.263517 l -1.76734,-0.299723 v -8.158159 c 0.73206,-0.939759 1.46419,-1.879697 2.19625,-2.819466 -1.04754,-1.313449 -2.09491,-2.626859 -3.14244,-3.940328 -1.13403,1.466199 -2.26835,2.932539 -3.40238,4.398698 -0.42429,-0.58718 -0.8485,-1.17446 -1.27279,-1.761649 1.11229,-1.438098 2.22445,-2.876387 3.33675,-4.314466 -1.02115,-1.280489 -2.04222,-2.56062 -3.06338,-3.841109 z"
       id="rect1494-7-6-2-2" />
  </g>
</svg>
