<?xml version="1.0" encoding="UTF-8" standalone="no"?>
<!-- Created with Inkscape (http://www.inkscape.org/) -->

<svg
   width="236.56769mm"
   height="166.43433mm"
   viewBox="0 0 236.56769 166.43433"
   version="1.1"
   id="svg559"
   inkscape:version="1.2.2 (b0a8486541, 2022-12-01)"
   sodipodi:docname="chess-pieces-basis.svg"
   xmlns:inkscape="http://www.inkscape.org/namespaces/inkscape"
   xmlns:sodipodi="http://sodipodi.sourceforge.net/DTD/sodipodi-0.dtd"
   xmlns="http://www.w3.org/2000/svg"
   xmlns:svg="http://www.w3.org/2000/svg">
  <sodipodi:namedview
     id="namedview561"
     pagecolor="#ffffff"
     bordercolor="#000000"
     borderopacity="0.25"
     inkscape:showpageshadow="2"
     inkscape:pageopacity="0.0"
     inkscape:pagecheckerboard="0"
     inkscape:deskcolor="#d1d1d1"
     inkscape:document-units="mm"
     showgrid="false"
     inkscape:zoom="0.72515432"
     inkscape:cx="384.05618"
     inkscape:cy="419.22111"
     inkscape:window-width="1452"
     inkscape:window-height="991"
     inkscape:window-x="26"
     inkscape:window-y="23"
     inkscape:window-maximized="0"
     inkscape:current-layer="layer1" />
  <defs
     id="defs556" />
  <g
     inkscape:label="Layer 1"
     inkscape:groupmode="layer"
     id="layer1"
     transform="translate(255.70763,84.397295)">
    <path
       id="rect1275-5-9-0-0-2"
       style="vector-effect:non-scaling-stroke;fill:#000000;fill-opacity:1;stroke:#fe0000;stroke-width:0.264583;stroke-dasharray:none;stroke-opacity:1;-inkscape-stroke:hairline;stop-color:#000000"
       inkscape:transform-center-x="11.48432"
       inkscape:transform-center-y="-39.381938"
       d="m -179.82761,11.378075 -4.85018,10.177154 -10.42998,-3.262257 2.50216,11.656664 -9.37121,3.453732 7.76176,6.862871 2.20218,-2.33217 0.0403,0.0434 v 2.87064 h 2.63758 v 2.55746 h -2.67234 v 3.50005 h 2.67234 v 2.42414 h -2.63439 v 3.500038 h 2.63439 v 1.50172 l -3.43795,0.49971 V 70.2706 h 27.51182 V 54.831227 l -3.43795,-0.49971 v -9.009268 l 2.72172,2.56625 6.22188,-7.74629 -4.9495,-4.66743 -0.22091,-0.20774 -5.61496,-5.79809 -6.61795,7.33082 -1.13563,-1.30794 -1.3405,-1.62832 6.49171,-7.19026 -4.09058,-4.39405 1.43609,-1.52031 z"
       sodipodi:nodetypes="ccccccccccccccccccccccccccccccccccccc" />
    <path
       id="rect1275-5-9-6-4-6"
       style="vector-effect:non-scaling-stroke;fill:#000000;fill-opacity:1;stroke:#fe0000;stroke-width:0.264583;stroke-dasharray:none;stroke-opacity:1;-inkscape-stroke:hairline;stop-color:#000000"
       d="m -210.24771,15.060054 v 13.578994 h -3.15535 -3.14504 v 3.34605 h 3.00809 v 3.44837 h -3.00809 v 3.44785 h 3.00809 v 3.44682 h -3.00809 v 3.44836 h 3.00809 v 3.44786 h -3.00809 v 3.44681 h 3.00809 v 1.65985 l 4.00802,0.49971 v 15.408361 c -9.56937,0.0404 -19.14027,0.0436 -28.71039,0 V 54.830728 l 3.37292,-0.49868 v -11.19259 c -1.92933,2.27057 -3.85892,4.54141 -5.78828,6.81198 -2.95802,-2.363599 -5.91582,-4.727429 -8.87387,-7.09104 4.02777,-4.7404 8.05525,-9.480919 12.08298,-14.22135 h -2.27014 V 15.060054 h 6.72413 v 5.306114 h 2.57504 c 0.0271,-0.0319 0.0541,-0.0638 0.0811,-0.0956 0.0399,0.0319 0.08,0.0637 0.11989,0.0956 h 1.87379 v -5.306114 h 6.72414 v 5.306114 h 4.64881 V 15.060054 Z M -228.567,30.666828 c -0.0833,0.003 -0.16913,0.01 -0.25735,0.0217 -0.39348,1.99e-4 -0.78827,0.106 -1.12138,0.310569 -2.252,1.2628 -0.7604,4.88782 1.75287,4.30258 2.44591,-0.58292 2.20967,-4.71868 -0.37414,-4.63486 z"
       sodipodi:nodetypes="ccccccccccccccccccccccccccccccccccccccccccscccss" />
    <path
       id="path2444-9-3-6"
       style="vector-effect:non-scaling-stroke;fill:none;fill-opacity:1;stroke:#ff0000;stroke-width:0.24993;stroke-dasharray:none;stroke-opacity:1;-inkscape-stroke:hairline;stop-color:#000000"
       d="m -235.76245,-67.050189 c -1.54328,-2.9e-5 -2.79503,1.116905 -2.79501,2.493988 0,0.17893 0.0231,0.356468 0.0653,0.531299 l -11.59686,6.393914 8.98849,5.358934 -12.38808,43.2217484 35.45241,-0.02156 -12.29189,-43.0531614 8.89115,-5.789052 -11.57739,-6.200813 c 0.0297,-0.145909 0.0454,-0.293228 0.0459,-0.441399 2e-5,-1.377102 -1.25058,-2.494027 -2.79389,-2.494017 z m 0.13287,5.234431 1.71412,2.67937 4.69118,0.965 -4.76448,1.1077 -1.90647,2.733271 -1.71412,-2.67938 -4.69118,-0.96499 4.76448,-1.107681 z" />
    <path
       id="path1865-3-3-1-1"
       style="vector-effect:non-scaling-stroke;fill:none;fill-opacity:1;stroke:#ff0000;stroke-width:0.264583;stroke-dasharray:none;stroke-opacity:1;-inkscape-stroke:hairline;stop-color:#000000"
       d="m -191.94099,-74.166533 c -1.47106,2.28339 -2.9909,4.54244 -4.60982,6.7532 -1.6153,-1.32629 -3.11933,-2.7414 -4.63699,-4.14673 -1.64408,1.59963 -3.3582,3.14227 -5.11964,4.64947 2.43134,3.56174 4.95863,7.076 7.43587,10.61481 -3.47626,15.71144 -7.00332,31.414185 -10.52871,47.1177648 11.77211,-0.0707 24.14381,-4e-5 35,0.0111 -3.50359,-15.4566598 -6.7347,-32.0580548 -10.19298,-47.5220048 2.56407,-3.78381 5.09222,-6.49397 7.74109,-10.23578 -2.04416,-1.5321 -3.76996,-3.31389 -5.47574,-5.1087 -1.52765,1.65101 -3.10761,3.26342 -4.75566,4.82927 -1.71616,-2.27373 -3.28633,-4.61599 -4.85742,-6.96278 z m -1.59954,32.758338 h 3.28161 v 3.32447 h 3.28047 v 3.32334 h -3.28047 v 3.32452 h -3.28161 v -3.32452 h -3.28158 v -3.32334 h 3.28158 z" />
    <path
       id="rect506-8-4-2"
       style="vector-effect:non-scaling-stroke;fill:none;fill-opacity:1;stroke:#ff0000;stroke-width:0.264583;stroke-dasharray:none;stroke-opacity:1;-inkscape-stroke:hairline;stop-color:#000000"
       d="m -33.032473,-49.166893 a 6.3681197,7.4970814 0 0 0 -6.00221,5.00752 h -3.99716 v 34.9924548 h 20 V -44.159343 h -3.99327 a 6.3681197,7.4970814 0 0 0 -6.00736,-5.00755 z" />
    <path
       id="rect1494-7-6-2-2-4"
       style="vector-effect:non-scaling-stroke;fill:none;fill-opacity:1;stroke:#ff0000;stroke-width:0.264583;stroke-dasharray:none;stroke-opacity:1;-inkscape-stroke:hairline;stop-color:#000000"
       d="m -150.85273,-59.166913 c 2.04231,2.13415 4.08458,4.26831 6.12688,6.40246 -2.22458,2.3968 -4.44921,4.79364 -6.67379,7.19048 0.84858,0.97865 1.69718,1.95729 2.54576,2.93593 2.26804,-2.44361 4.53609,-4.88721 6.80414,-7.33086 2.09507,2.18911 4.19016,4.37819 6.28523,6.56728 -1.46412,1.56628 -2.92825,3.13252 -4.39236,4.69878 v 13.59681 l 3.53482,0.49943 v 15.4396848 h -28.28479 V -24.606603 l 3.53485,-0.49943 v -13.52082 c -1.4641,-1.52979 -2.92824,-3.05957 -4.39237,-4.58936 4.97055,-5.31689 9.9411,-10.63381 14.91163,-15.9507 z"
       sodipodi:nodetypes="cccccccccccccccc" />
    <path
       id="rect1275-5-9-6-9-0"
       style="vector-effect:non-scaling-stroke;fill:none;fill-opacity:1;stroke:#ff0000;stroke-width:0.264583;stroke-dasharray:none;stroke-opacity:1;-inkscape-stroke:hairline;stop-color:#000000"
       d="m -97.657904,-59.166913 v 15.71269 h -3.155076 v 18.14761 l 3.684306,0.69515 V -9.1669182 H -126.60064 V -24.611463 l 3.6843,-0.69515 v -18.14761 h -4.21225 v -15.71269 h 6.72386 v 7.43974 h 4.65013 v -7.43974 h 6.72393 v 7.43974 h 4.64885 v -7.43974 z"
       sodipodi:nodetypes="ccccccccccccccccccccc" />
    <path
       id="rect1494-1-1-0-1"
       style="vector-effect:non-scaling-stroke;fill:none;fill-opacity:1;stroke:#ff0000;stroke-width:0.264583;stroke-dasharray:none;stroke-opacity:1;-inkscape-stroke:hairline;stop-color:#000000"
       d="m -67.686293,-59.166923 c 6.39785,7.52991 12.795636,15.05985 19.193533,22.58973 -2.958058,2.36361 -5.916147,4.72726 -8.874175,7.09087 -1.929359,-2.27058 -3.858638,-4.54118 -5.787968,-6.81176 v 11.19247 l 3.372849,0.49901 v 15.4081738 c -9.570129,0.0436 -19.141319,0.0404 -28.710699,0 V -24.606603 l 4.00845,-0.5 v -1.65978 h 3.00785 v -3.44685 h -3.00785 v -3.44802 h 3.00785 v -3.44803 h -3.00785 v -3.44686 h 3.00785 v -3.44801 h -3.00785 v -3.44804 h 3.00785 v -3.44683 h -3.00785 c -0.18661,-1.16501 0.17392,-2.17539 1.11792,-2.961 1.63973,-1.41918 3.13985,-4.49895 4.82205,-4.89734 1.73239,1.18506 3.40449,3.99036 5.17582,4.13022 1.89411,-1.51324 3.78815,-3.0265 5.68222,-4.53978 z m -1.51375,10.4177 c -2.82312,-0.3759 -3.15665,4.01172 -0.63183,4.61345 2.51328,0.58524 4.00491,-3.03986 1.7529,-4.30266 -0.33311,-0.20457 -0.72759,-0.31059 -1.12107,-0.31079 z"
       sodipodi:nodetypes="cccccccccccccccccccccccccccccccccc" />
    <text
       xml:space="preserve"
       style="font-style:normal;font-variant:normal;font-weight:bold;font-stretch:normal;font-size:7.05556px;font-family:Arial;-inkscape-font-specification:'Arial, Bold';font-variant-ligatures:normal;font-variant-caps:normal;font-variant-numeric:normal;font-variant-east-asian:normal;fill:#000000;fill-opacity:1;stroke:none;stroke-width:0.967601;stroke-opacity:1;stop-color:#000000"
       x="-246.20218"
       y="7.5836082"
       id="text2815"
       transform="scale(1.0224706,0.97802323)"><tspan
         sodipodi:role="line"
         id="tspan2813"
         style="font-style:normal;font-variant:normal;font-weight:bold;font-stretch:normal;font-size:7.05556px;font-family:Arial;-inkscape-font-specification:'Arial, Bold';font-variant-ligatures:normal;font-variant-caps:normal;font-variant-numeric:normal;font-variant-east-asian:normal;fill:#000000;fill-opacity:1;stroke:none;stroke-width:0.967603;stroke-opacity:1"
         x="-246.20218"
         y="7.5836082">Knighted Chess : 10x10 board</tspan></text>
    <text
       xml:space="preserve"
       style="font-style:normal;font-variant:normal;font-weight:bold;font-stretch:normal;font-size:7.05556px;font-family:Arial;-inkscape-font-specification:'Arial, Bold';font-variant-ligatures:normal;font-variant-caps:normal;font-variant-numeric:normal;font-variant-east-asian:normal;fill:#000000;fill-opacity:1;stroke:none;stroke-width:0.967601;stroke-opacity:1;stop-color:#000000"
       x="-250.34294"
       y="-81.157112"
       id="text2815-6"
       transform="scale(1.0224706,0.97802323)"><tspan
         sodipodi:role="line"
         id="tspan2813-2"
         style="font-style:normal;font-variant:normal;font-weight:bold;font-stretch:normal;font-size:7.05556px;font-family:Arial;-inkscape-font-specification:'Arial, Bold';font-variant-ligatures:normal;font-variant-caps:normal;font-variant-numeric:normal;font-variant-east-asian:normal;fill:#000000;fill-opacity:1;stroke:none;stroke-width:0.967603;stroke-opacity:1"
         x="-250.34294"
         y="-81.157112">Standard Chess : 8x8 board</tspan></text>
    <text
       xml:space="preserve"
       style="font-size:5.64444px;font-family:Arial;-inkscape-font-specification:'Arial, Normal';fill:#000300;stroke-width:0.499999;stop-color:#000000"
       x="-239.59076"
       y="80.849167"
       id="text715"><tspan
         sodipodi:role="line"
         id="tspan713"
         style="stroke-width:0.5"
         x="-239.59076"
         y="80.849167">Knight-rook       Knight-bishop</tspan></text>
    <path
       id="rect1275-5-9"
       style="vector-effect:non-scaling-stroke;fill:#ff0000;fill-opacity:1;stroke:#000000;stroke-width:0.679344;stroke-dasharray:none;stroke-opacity:1;-inkscape-stroke:hairline;stop-color:#000000"
       d="m -118.75712,10.77804 -3.46971,3.930672 2.36848,4.299893 -3.00754,3.076811 -3.01306,-3.447072 -4.11878,3.921602 2.78134,3.97637 -3.64932,4.14678 -3.09257,-4.597251 -2.9194,3.481198 7.02933,10.699183 2.27961,-2.33216 2.77247,2.87683 v 13.520625 l -3.55926,0.49971 V 70.2706 h 28.481643 V 54.831231 l -3.559263,-0.49971 V 40.734926 l 4.422753,-4.69894 -6.329053,-6.56704 -6.85135,7.33082 -2.56329,-2.93625 6.72021,-7.19026 -4.23453,-4.39405 1.4866,-1.52032 z"
       sodipodi:nodetypes="cccccccccccccccccccccccccccc" />
    <text
       xml:space="preserve"
       style="font-size:5.64444px;font-family:Arial;-inkscape-font-specification:'Arial, Normal';vector-effect:non-scaling-stroke;fill:#000300;fill-opacity:1;stroke-width:0.264583;stroke-dasharray:none;-inkscape-stroke:hairline;stop-color:#000000"
       x="-117.66923"
       y="78.776245"
       id="text1881"><tspan
         sodipodi:role="line"
         id="tspan1879"
         style="stroke-width:0.264583"
         x="-117.66923"
         y="78.776245">Rook-bishop = queen</tspan></text>
  </g>
</svg>
